<svg width="33" height="33" viewBox="0 0 33 33" fill="none" xmlns="http://www.w3.org/2000/svg">
<g id="DiscordLogo">
<path id="Vector" d="M12.293 20.0938C13.1214 20.0938 13.793 19.4222 13.793 18.5938C13.793 17.7653 13.1214 17.0938 12.293 17.0938C11.4645 17.0938 10.793 17.7653 10.793 18.5938C10.793 19.4222 11.4645 20.0938 12.293 20.0938Z" fill="#A0A0A0"/>
<path id="Vector_2" d="M20.293 20.0938C21.1214 20.0938 21.793 19.4222 21.793 18.5938C21.793 17.7653 21.1214 17.0938 20.293 17.0938C19.4645 17.0938 18.793 17.7653 18.793 18.5938C18.793 19.4222 19.4645 20.0938 20.293 20.0938Z" fill="#A0A0A0"/>
<path id="Vector (Stroke)" fill-rule="evenodd" clip-rule="evenodd" d="M16.2856 10.5933C14.1178 10.5773 11.9608 10.8993 9.89211 11.5476C9.3651 11.7128 8.80398 11.4194 8.63881 10.8924C8.47364 10.3654 8.76697 9.80431 9.29397 9.63914C11.5586 8.92938 13.9199 8.57656 16.293 8.59334C18.6662 8.57656 21.0275 8.92938 23.2921 9.63914C23.8191 9.80431 24.1124 10.3654 23.9473 10.8924C23.7821 11.4194 23.221 11.7128 22.694 11.5476C20.6253 10.8993 18.4683 10.5773 16.3004 10.5933H16.2856Z" fill="#A0A0A0"/>
<path id="Vector (Stroke)_2" fill-rule="evenodd" clip-rule="evenodd" d="M8.63881 22.295C8.80398 21.7679 9.3651 21.4746 9.89211 21.6398C11.9608 22.2881 14.1178 22.6101 16.2856 22.594H16.3004C18.4683 22.6101 20.6253 22.2881 22.694 21.6398C23.221 21.4746 23.7821 21.7679 23.9473 22.295C24.1124 22.822 23.8191 23.3831 23.2921 23.5482C21.0275 24.258 18.6662 24.6108 16.293 24.594C13.9199 24.6108 11.5586 24.258 9.29397 23.5482C8.76697 23.3831 8.47364 22.822 8.63881 22.295Z" fill="#A0A0A0"/>
<path id="Vector (Stroke)_3" fill-rule="evenodd" clip-rule="evenodd" d="M20.5124 5.40496C20.9429 5.16227 21.4476 5.08642 21.9303 5.19187C23.2479 5.47741 24.5378 5.87799 25.7853 6.38899C26.0661 6.49727 26.3183 6.66871 26.5224 6.89013C26.7286 7.11393 26.88 7.3826 26.9645 7.6749L31.2003 21.8193C31.3108 22.1878 31.3134 22.5802 31.2077 22.9501C31.102 23.32 30.8925 23.6518 30.604 23.9063L30.5989 23.9109C28.5314 25.7098 25.73 27.0715 22.5481 27.8515C22.1061 27.9641 21.6387 27.9203 21.2252 27.7273C20.8134 27.5352 20.4806 27.207 20.2828 26.7982L18.7745 23.8066C18.5259 23.3135 18.7241 22.7122 19.2173 22.4635C19.7104 22.2149 20.3118 22.4131 20.5604 22.9063L22.0729 25.9063L22.074 25.9085C25.0119 25.188 27.506 23.9509 29.286 22.4021L29.9425 23.1565L29.2809 22.4066C29.2827 22.405 29.284 22.4029 29.2846 22.4006C29.2853 22.3983 29.2853 22.3959 29.2846 22.3936L25.0485 8.2484C25.045 8.247 25.0414 8.24557 25.0379 8.24412C23.895 7.77524 22.713 7.40787 21.5057 7.14628L21.5035 7.1458C21.5005 7.14514 21.4974 7.14561 21.4947 7.14712C21.4923 7.14848 21.4904 7.15059 21.4893 7.15312L20.5044 10.1328C20.3311 10.6572 19.7655 10.9418 19.2411 10.7684C18.7167 10.5951 18.4322 10.0295 18.6055 9.50511L19.5959 6.50891C19.7554 6.04082 20.0817 5.64785 20.5124 5.40496Z" fill="#A0A0A0"/>
<path id="Vector (Stroke)_4" fill-rule="evenodd" clip-rule="evenodd" d="M11.0912 7.14712C11.0885 7.14561 11.0854 7.14514 11.0824 7.1458L11.0802 7.14627C9.87285 7.40787 8.69089 7.77523 7.54798 8.24412C7.54446 8.24557 7.54092 8.24699 7.53737 8.2484L3.30139 22.3933C3.30071 22.3956 3.30061 22.3983 3.30126 22.4006C3.30185 22.4027 3.30297 22.4046 3.30449 22.4061C5.08418 23.953 7.57657 25.1886 10.5119 25.9085L10.513 25.9063L12.0255 22.9063C12.2741 22.4131 12.8755 22.2149 13.3686 22.4635C13.8618 22.7122 14.06 23.3135 13.8114 23.8066L12.3031 26.7982C12.1052 27.207 11.7724 27.5352 11.3607 27.7273C10.9472 27.9203 10.4798 27.9641 10.0378 27.8515C6.85584 27.0715 4.05447 25.7098 1.98701 23.9108L1.98183 23.9063C1.69336 23.6518 1.4839 23.32 1.37821 22.9501C1.27256 22.5803 1.27508 22.188 1.38546 21.8196C1.38543 21.8197 1.38549 21.8195 1.38546 21.8196L5.62136 7.67492C5.70588 7.38262 5.85723 7.11394 6.06348 6.89013C6.26754 6.66871 6.51976 6.49727 6.80056 6.38899C8.04843 5.87784 9.33874 5.47719 10.6567 5.19163C11.1391 5.08654 11.6433 5.16245 12.0735 5.40496C12.5042 5.64784 12.8305 6.04083 12.99 6.50893L12.9929 6.5176L13.9804 9.50511C14.1537 10.0295 13.8692 10.5951 13.3448 10.7684C12.8204 10.9418 12.2548 10.6572 12.0815 10.1328L11.0965 7.15312C11.0955 7.15059 11.0936 7.14848 11.0912 7.14712Z" fill="#A0A0A0"/>
<path id="Vector_3" d="M12.293 20.0938C13.1214 20.0938 13.793 19.4222 13.793 18.5938C13.793 17.7653 13.1214 17.0938 12.293 17.0938C11.4645 17.0938 10.793 17.7653 10.793 18.5938C10.793 19.4222 11.4645 20.0938 12.293 20.0938Z" fill="#A0A0A0"/>
<path id="Vector_4" d="M20.293 20.0938C21.1214 20.0938 21.793 19.4222 21.793 18.5938C21.793 17.7653 21.1214 17.0938 20.293 17.0938C19.4645 17.0938 18.793 17.7653 18.793 18.5938C18.793 19.4222 19.4645 20.0938 20.293 20.0938Z" fill="#A0A0A0"/>
<path id="Vector (Stroke)_5" fill-rule="evenodd" clip-rule="evenodd" d="M16.2856 10.5933C14.1178 10.5773 11.9608 10.8993 9.89211 11.5476C9.3651 11.7128 8.80398 11.4194 8.63881 10.8924C8.47364 10.3654 8.76697 9.80431 9.29397 9.63914C11.5586 8.92938 13.9199 8.57656 16.293 8.59334C18.6662 8.57656 21.0275 8.92938 23.2921 9.63914C23.8191 9.80431 24.1124 10.3654 23.9473 10.8924C23.7821 11.4194 23.221 11.7128 22.694 11.5476C20.6253 10.8993 18.4683 10.5773 16.3004 10.5933H16.2856Z" fill="#A0A0A0"/>
<path id="Vector (Stroke)_6" fill-rule="evenodd" clip-rule="evenodd" d="M8.63881 22.295C8.80398 21.7679 9.3651 21.4746 9.89211 21.6398C11.9608 22.2881 14.1178 22.6101 16.2856 22.594H16.3004C18.4683 22.6101 20.6253 22.2881 22.694 21.6398C23.221 21.4746 23.7821 21.7679 23.9473 22.295C24.1124 22.822 23.8191 23.3831 23.2921 23.5482C21.0275 24.258 18.6662 24.6108 16.293 24.594C13.9199 24.6108 11.5586 24.258 9.29397 23.5482C8.76697 23.3831 8.47364 22.822 8.63881 22.295Z" fill="#A0A0A0"/>
<path id="Vector (Stroke)_7" fill-rule="evenodd" clip-rule="evenodd" d="M20.5124 5.40496C20.9429 5.16227 21.4476 5.08642 21.9303 5.19187C23.2479 5.47741 24.5378 5.87799 25.7853 6.38899C26.0661 6.49727 26.3183 6.66871 26.5224 6.89013C26.7286 7.11393 26.88 7.3826 26.9645 7.6749L31.2003 21.8193C31.3108 22.1878 31.3134 22.5802 31.2077 22.9501C31.102 23.32 30.8925 23.6518 30.604 23.9063L30.5989 23.9109C28.5314 25.7098 25.73 27.0715 22.5481 27.8515C22.1061 27.9641 21.6387 27.9203 21.2252 27.7273C20.8134 27.5352 20.4806 27.207 20.2828 26.7982L18.7745 23.8066C18.5259 23.3135 18.7241 22.7122 19.2173 22.4635C19.7104 22.2149 20.3118 22.4131 20.5604 22.9063L22.0729 25.9063L22.074 25.9085C25.0119 25.188 27.506 23.9509 29.286 22.4021L29.9425 23.1565L29.2809 22.4066C29.2827 22.405 29.284 22.4029 29.2846 22.4006C29.2853 22.3983 29.2853 22.3959 29.2846 22.3936L25.0485 8.2484C25.045 8.247 25.0414 8.24557 25.0379 8.24412C23.895 7.77524 22.713 7.40787 21.5057 7.14628L21.5035 7.1458C21.5005 7.14514 21.4974 7.14561 21.4947 7.14712C21.4923 7.14848 21.4904 7.15059 21.4893 7.15312L20.5044 10.1328C20.3311 10.6572 19.7655 10.9418 19.2411 10.7684C18.7167 10.5951 18.4322 10.0295 18.6055 9.50511L19.5959 6.50891C19.7554 6.04082 20.0817 5.64785 20.5124 5.40496Z" fill="#A0A0A0"/>
<path id="Vector (Stroke)_8" fill-rule="evenodd" clip-rule="evenodd" d="M11.0912 7.14712C11.0885 7.14561 11.0854 7.14514 11.0824 7.1458L11.0802 7.14627C9.87285 7.40787 8.69089 7.77523 7.54798 8.24412C7.54446 8.24557 7.54092 8.24699 7.53737 8.2484L3.30139 22.3933C3.30071 22.3956 3.30061 22.3983 3.30126 22.4006C3.30185 22.4027 3.30297 22.4046 3.30449 22.4061C5.08418 23.953 7.57657 25.1886 10.5119 25.9085L10.513 25.9063L12.0255 22.9063C12.2741 22.4131 12.8755 22.2149 13.3686 22.4635C13.8618 22.7122 14.06 23.3135 13.8114 23.8066L12.3031 26.7982C12.1052 27.207 11.7724 27.5352 11.3607 27.7273C10.9472 27.9203 10.4798 27.9641 10.0378 27.8515C6.85584 27.0715 4.05447 25.7098 1.98701 23.9108L1.98183 23.9063C1.69336 23.6518 1.4839 23.32 1.37821 22.9501C1.27256 22.5803 1.27508 22.188 1.38546 21.8196C1.38543 21.8197 1.38549 21.8195 1.38546 21.8196L5.62136 7.67492C5.70588 7.38262 5.85723 7.11394 6.06348 6.89013C6.26754 6.66871 6.51976 6.49727 6.80056 6.38899C8.04843 5.87784 9.33874 5.47719 10.6567 5.19163C11.1391 5.08654 11.6433 5.16245 12.0735 5.40496C12.5042 5.64784 12.8305 6.04083 12.99 6.50893L12.9929 6.5176L13.9804 9.50511C14.1537 10.0295 13.8692 10.5951 13.3448 10.7684C12.8204 10.9418 12.2548 10.6572 12.0815 10.1328L11.0965 7.15312C11.0955 7.15059 11.0936 7.14848 11.0912 7.14712Z" fill="#A0A0A0"/>
</g>
</svg>
