<svg width="33" height="33" viewBox="0 0 33 33" fill="none" xmlns="http://www.w3.org/2000/svg">
<g id="InstagramLogo">
<path id="Vector (Stroke)" fill-rule="evenodd" clip-rule="evenodd" d="M16.293 12.5938C14.0838 12.5938 12.293 14.3846 12.293 16.5938C12.293 18.8029 14.0838 20.5938 16.293 20.5938C18.5021 20.5938 20.293 18.8029 20.293 16.5938C20.293 14.3846 18.5021 12.5938 16.293 12.5938ZM10.293 16.5938C10.293 13.28 12.9793 10.5938 16.293 10.5938C19.6067 10.5938 22.293 13.28 22.293 16.5938C22.293 19.9075 19.6067 22.5938 16.293 22.5938C12.9793 22.5938 10.293 19.9075 10.293 16.5938Z" fill="#A0A0A0"/>
<path id="Vector (Stroke)_2" fill-rule="evenodd" clip-rule="evenodd" d="M10.793 6.09375C8.03154 6.09375 5.79297 8.33233 5.79297 11.0938V22.0938C5.79297 24.8552 8.03154 27.0938 10.793 27.0938H21.793C24.5544 27.0938 26.793 24.8552 26.793 22.0938V11.0938C26.793 8.33233 24.5544 6.09375 21.793 6.09375H10.793ZM3.79297 11.0938C3.79297 7.22776 6.92698 4.09375 10.793 4.09375H21.793C25.659 4.09375 28.793 7.22776 28.793 11.0938V22.0938C28.793 25.9597 25.659 29.0938 21.793 29.0938H10.793C6.92698 29.0938 3.79297 25.9597 3.79297 22.0938V11.0938Z" fill="#A0A0A0"/>
<path id="Vector" d="M22.793 11.5938C23.6214 11.5938 24.293 10.9222 24.293 10.0938C24.293 9.26532 23.6214 8.59375 22.793 8.59375C21.9645 8.59375 21.293 9.26532 21.293 10.0938C21.293 10.9222 21.9645 11.5938 22.793 11.5938Z" fill="#A0A0A0"/>
</g>
</svg>
