<svg width="33" height="33" viewBox="0 0 33 33" fill="none" xmlns="http://www.w3.org/2000/svg">
<g id="TwitterLogo">
<path id="Vector" d="M16.2927 11.5942C16.2927 8.8442 18.6052 6.5567 21.3552 6.5942C22.3182 6.60532 23.2576 6.89435 24.0603 7.42655C24.863 7.95875 25.495 8.71146 25.8802 9.5942H30.2927L26.2552 13.6317C25.9946 17.6874 24.1993 21.4917 21.2342 24.271C18.269 27.0504 14.3567 28.5962 10.2927 28.5942C6.29267 28.5942 5.29267 27.0942 5.29267 27.0942C5.29267 27.0942 9.29267 25.5942 11.2927 22.5942C11.2927 22.5942 3.29267 18.5942 5.29267 7.5942C5.29267 7.5942 10.2927 12.5942 16.2927 13.5942V11.5942Z" stroke="#A0A0A0" stroke-width="2" stroke-linecap="round" stroke-linejoin="round"/>
</g>
</svg>
