<svg width="33" height="33" viewBox="0 0 33 33" fill="none" xmlns="http://www.w3.org/2000/svg">
<g id="YoutubeLogo">
<path id="Vector (Stroke)" fill-rule="evenodd" clip-rule="evenodd" d="M13.8211 11.7121C14.1463 11.5381 14.5408 11.5571 14.8477 11.7617L20.8477 15.7617C21.1259 15.9472 21.293 16.2594 21.293 16.5938C21.293 16.9281 21.1259 17.2403 20.8477 17.4258L14.8477 21.4258C14.5408 21.6304 14.1463 21.6494 13.8211 21.4754C13.496 21.3014 13.293 20.9625 13.293 20.5938V12.5938C13.293 12.225 13.496 11.8861 13.8211 11.7121ZM15.293 14.4623V18.7252L18.4902 16.5938L15.293 14.4623Z" fill="#A0A0A0"/>
<path id="Vector (Stroke)_2" fill-rule="evenodd" clip-rule="evenodd" d="M16.2915 5.6436L16.2746 5.64355L16.2118 5.64358C16.1573 5.64371 16.0779 5.6441 15.9761 5.64518C15.7724 5.64734 15.4786 5.65225 15.1136 5.6632C14.3841 5.6851 13.3675 5.73124 12.2167 5.82841C9.9403 6.0206 7.04225 6.41946 4.81105 7.27198L4.79635 7.27773C4.35808 7.45316 3.96717 7.72914 3.65515 8.08341C3.34313 8.43768 3.11874 8.86032 3.00008 9.31725L2.99911 9.32101C2.6877 10.5396 2.29297 12.7993 2.29297 16.5936C2.29297 20.388 2.6877 22.6477 2.99911 23.8662L3.00008 23.87C3.11874 24.3269 3.34313 24.7495 3.65515 25.1038C3.96717 25.4581 4.35807 25.7341 4.79635 25.9095L4.81105 25.9152C7.04225 26.7678 9.9403 27.1666 12.2167 27.3588C13.3675 27.456 14.3841 27.5021 15.1136 27.524C15.4786 27.535 15.7724 27.5399 15.9761 27.542C16.0779 27.5431 16.1573 27.5435 16.2118 27.5436L16.2746 27.5437L16.2915 27.5436H16.2945L16.3113 27.5437L16.3741 27.5436C16.4286 27.5435 16.508 27.5431 16.6099 27.542C16.8135 27.5399 17.1074 27.535 17.4724 27.524C18.2018 27.5021 19.2184 27.456 20.3693 27.3588C22.6456 27.1666 25.5437 26.7678 27.7749 25.9152L27.7896 25.9095C28.2279 25.7341 28.6188 25.4581 28.9308 25.1038C29.2428 24.7495 29.4672 24.3269 29.5859 23.87L29.5868 23.8662C29.8982 22.6477 30.293 20.388 30.293 16.5936C30.293 12.7993 29.8982 10.5396 29.5868 9.32101L29.5859 9.31725C29.4672 8.86032 29.2428 8.43768 28.9308 8.08341C28.6188 7.72914 28.2279 7.45316 27.7896 7.27773L27.7749 7.27198C25.5437 6.41946 22.6456 6.0206 20.3693 5.82841C19.2184 5.73124 18.2018 5.6851 17.4724 5.6632C17.1074 5.65225 16.8135 5.64734 16.6099 5.64518C16.508 5.6441 16.4286 5.64371 16.3741 5.64358L16.3113 5.64355L16.2945 5.6436H16.2915ZM16.2877 25.5436L16.2984 25.5436L16.3016 25.5436L16.3147 25.5437L16.3697 25.5436C16.4188 25.5435 16.4926 25.5432 16.5886 25.5422C16.7807 25.5401 17.0616 25.5355 17.4124 25.5249C18.1146 25.5038 19.0941 25.4594 20.201 25.3659C22.4371 25.1771 25.0971 24.7956 27.0526 24.0502C27.1974 23.9911 27.3265 23.8993 27.4299 23.7819C27.5344 23.6633 27.6097 23.5218 27.6497 23.3688C27.9132 22.3366 28.293 20.2467 28.293 16.5936C28.293 12.9405 27.9132 10.8506 27.6497 9.81839C27.6097 9.66543 27.5344 9.52395 27.4299 9.40529C27.3265 9.2879 27.1974 9.19608 27.0526 9.13701C25.0971 8.39166 22.4371 8.0101 20.201 7.82132C19.0941 7.72786 18.1146 7.68338 17.4124 7.6623C17.0616 7.65177 16.7807 7.64711 16.5886 7.64507C16.4926 7.64405 16.4188 7.64369 16.3697 7.64358L16.3147 7.64355L16.3016 7.64358L16.2987 7.6436L16.2876 7.64366L16.2844 7.64358L16.2713 7.64355L16.2163 7.64358C16.1671 7.64369 16.0933 7.64405 15.9973 7.64507C15.8052 7.64711 15.5244 7.65177 15.1736 7.6623C14.4713 7.68338 13.4918 7.72786 12.3849 7.82132C10.1489 8.0101 7.48887 8.39166 5.53336 9.13702C5.38858 9.19609 5.25942 9.2879 5.15603 9.40529C5.05152 9.52395 4.97626 9.66543 4.93627 9.81839C4.6727 10.8506 4.29297 12.9405 4.29297 16.5936C4.29297 20.2467 4.6727 22.3366 4.93627 23.3688C4.97626 23.5218 5.05152 23.6633 5.15603 23.7819C5.25942 23.8993 5.38857 23.9911 5.53335 24.0502C7.48886 24.7956 10.1489 25.1771 12.3849 25.3659C13.4918 25.4594 14.4713 25.5038 15.1736 25.5249C15.5244 25.5355 15.8052 25.5401 15.9973 25.5422C16.0933 25.5432 16.1671 25.5435 16.2163 25.5436L16.2713 25.5437L16.2844 25.5436L16.2877 25.5436Z" fill="#A0A0A0"/>
</g>
</svg>
