<svg width="250" height="251" viewBox="0 0 250 251" fill="none" xmlns="http://www.w3.org/2000/svg">
<g clip-path="url(#clip0_4775_7253)">
<path d="M125 229.761C182.53 229.761 229.166 183.124 229.166 125.594C229.166 68.0648 182.53 21.4277 125 21.4277C67.47 21.4277 20.833 68.0648 20.833 125.594C20.833 183.124 67.47 229.761 125 229.761Z" fill="url(#paint0_linear_4775_7253)"/>
<g filter="url(#filter0_f_4775_7253)">
<path d="M125 201.68C167.022 201.68 201.087 167.615 201.087 125.593C201.087 83.5712 167.022 49.5059 125 49.5059C82.9784 49.5059 48.9131 83.5712 48.9131 125.593C48.9131 167.615 82.9784 201.68 125 201.68Z" fill="url(#paint1_linear_4775_7253)"/>
</g>
<path fill-rule="evenodd" clip-rule="evenodd" d="M75.2682 47.3143C77.0109 47.3143 78.4237 45.9016 78.4237 44.1588C78.4237 42.4162 77.0109 41.0034 75.2682 41.0034C73.5255 41.0034 72.1128 42.4162 72.1128 44.1588C72.1128 45.9016 73.5255 47.3143 75.2682 47.3143ZM75.2682 49.681C78.318 49.681 80.7904 47.2086 80.7904 44.1588C80.7904 41.1091 78.318 38.6367 75.2682 38.6367C72.2185 38.6367 69.7461 41.1091 69.7461 44.1588C69.7461 47.2086 72.2185 49.681 75.2682 49.681Z" fill="white"/>
<path fill-rule="evenodd" clip-rule="evenodd" d="M46.2828 180.467C48.0256 180.467 49.4384 179.054 49.4384 177.311C49.4384 175.568 48.0256 174.156 46.2828 174.156C44.5402 174.156 43.1274 175.568 43.1274 177.311C43.1274 179.054 44.5402 180.467 46.2828 180.467ZM46.2828 182.833C49.3327 182.833 51.805 180.361 51.805 177.311C51.805 174.261 49.3327 171.789 46.2828 171.789C43.2331 171.789 40.7607 174.261 40.7607 177.311C40.7607 180.361 43.2331 182.833 46.2828 182.833Z" fill="white"/>
<path fill-rule="evenodd" clip-rule="evenodd" d="M204.797 91.699C206.54 91.699 207.953 90.2863 207.953 88.5436C207.953 86.8009 206.54 85.3882 204.797 85.3882C203.054 85.3882 201.642 86.8009 201.642 88.5436C201.642 90.2863 203.054 91.699 204.797 91.699ZM204.797 94.0659C207.847 94.0659 210.32 91.593 210.32 88.5436C210.32 85.4939 207.847 83.0215 204.797 83.0215C201.747 83.0215 199.275 85.4939 199.275 88.5436C199.275 91.593 201.747 94.0659 204.797 94.0659Z" fill="white"/>
<path d="M39.3033 47.8657C39.5354 46.9042 40.903 46.9042 41.1351 47.8657L41.9162 51.1017C41.9992 51.4453 42.2675 51.7136 42.6111 51.7965L45.8471 52.5777C46.8086 52.8098 46.8086 54.1774 45.8471 54.4095L42.6111 55.1907C42.2675 55.2736 41.9992 55.5418 41.9162 55.8855L41.1351 59.1215C40.903 60.083 39.5354 60.083 39.3033 59.1215L38.5221 55.8855C38.4392 55.5418 38.171 55.2736 37.8273 55.1907L34.5912 54.4095C33.6297 54.1774 33.6297 52.8098 34.5912 52.5777L37.8273 51.7965C38.171 51.7136 38.4392 51.4453 38.5221 51.1017L39.3033 47.8657Z" fill="white"/>
<path d="M207.694 47.3256C207.948 46.2717 209.447 46.2717 209.701 47.3256L210.558 50.8727C210.649 51.2493 210.943 51.5434 211.319 51.6344L214.866 52.4906C215.921 52.745 215.921 54.2441 214.866 54.4985L211.319 55.3547C210.943 55.4457 210.649 55.7397 210.558 56.1163L209.701 59.6635C209.447 60.7174 207.948 60.7174 207.694 59.6635L206.837 56.1163C206.747 55.7397 206.452 55.4457 206.075 55.3547L202.528 54.4985C201.475 54.2441 201.475 52.745 202.528 52.4906L206.075 51.6344C206.452 51.5434 206.747 51.2493 206.837 50.8727L207.694 47.3256Z" fill="url(#paint2_linear_4775_7253)"/>
<path d="M49.8469 200.989C51.0461 200.797 52.0036 201.975 51.5702 203.11L48.6454 210.768C48.2121 211.903 46.713 212.143 45.9471 211.201L40.7769 204.838C40.0108 203.896 40.5525 202.478 41.7518 202.286L49.8469 200.989Z" fill="url(#paint3_linear_4775_7253)"/>
<path d="M193.82 179.948C193.52 178.771 194.606 177.711 195.776 178.039L203.669 180.257C204.837 180.586 205.213 182.057 204.344 182.905L198.477 188.631C197.607 189.48 196.146 189.069 195.845 187.892L193.82 179.948Z" fill="url(#paint4_linear_4775_7253)"/>
<path d="M165.316 139.963L94.9836 114.364C89.5922 112.402 83.631 115.181 81.6688 120.573L65.0658 166.189C63.1036 171.58 65.8833 177.541 71.2745 179.503L141.608 205.103C146.999 207.065 152.96 204.285 154.922 198.893L171.525 153.277C173.487 147.886 170.707 141.925 165.316 139.963Z" fill="url(#paint5_linear_4775_7253)"/>
<path d="M162.462 154.092L183.238 124.166C186.51 119.453 185.342 112.98 180.629 109.708L150.703 88.932C145.99 85.6601 139.517 86.8283 136.245 91.5409L115.469 121.467C112.197 126.18 113.365 132.653 118.078 135.925L148.004 156.701C152.717 159.973 159.19 158.804 162.462 154.092Z" fill="url(#paint6_linear_4775_7253)"/>
<path d="M138.807 130.276C137.536 132.027 135.094 132.415 133.342 131.143C131.591 129.873 131.204 127.431 132.475 125.679C133.746 123.927 136.188 123.539 137.94 124.811C139.691 126.083 140.079 128.525 138.807 130.276Z" fill="url(#paint7_linear_4775_7253)"/>
<path d="M150.37 114.322L147.953 112.568L136.408 128.488L138.826 130.241L150.37 114.322Z" fill="url(#paint8_linear_4775_7253)"/>
<path d="M152.393 133.1C151.122 134.852 148.68 135.239 146.929 133.968C145.177 132.697 144.789 130.255 146.061 128.503C147.332 126.751 149.774 126.363 151.526 127.635C153.277 128.907 153.665 131.349 152.393 133.1Z" fill="url(#paint9_linear_4775_7253)"/>
<path d="M163.978 117.137L161.56 115.385L150.018 131.306L152.436 133.059L163.978 117.137Z" fill="url(#paint10_linear_4775_7253)"/>
<path d="M163.947 117.178L146.416 114.696L147.956 112.564L165.484 115.054L163.947 117.178Z" fill="url(#paint11_linear_4775_7253)"/>
<path d="M161.036 121.189L143.504 118.708L145.044 116.576L162.58 119.069L161.036 121.189Z" fill="url(#paint12_linear_4775_7253)"/>
<path d="M147.077 87.8498L140.993 59.6615C139.783 54.0534 134.254 50.4884 128.647 51.6989L91.7861 59.6549C86.1784 60.8653 82.6134 66.3928 83.8239 72.0009L89.9082 100.189C91.1186 105.797 96.6457 109.362 102.254 108.152L139.114 100.196C144.723 98.9854 148.287 93.4582 147.077 87.8498Z" fill="url(#paint13_linear_4775_7253)"/>
<path d="M146.596 84.9512L125.933 68.3613L117.945 84.1098L109.53 79.2585L97.8963 95.4534L89.1699 97.3338L89.5854 99.2867C90.9878 105.769 97.3764 109.894 103.859 108.49L137.797 101.167C144.279 99.7649 148.404 93.3764 147 86.8938L146.586 84.9512H146.596Z" fill="url(#paint14_linear_4775_7253)"/>
<path opacity="0.9" d="M97.6892 77.3788C100.92 77.2957 103.008 74.0546 101.751 71.0836C101.044 69.4215 99.3514 68.3308 97.5434 68.3722C94.3133 68.4554 92.2246 71.6965 93.4818 74.6675C94.1883 76.3296 95.8813 77.4203 97.6892 77.3788Z" fill="white"/>
<path d="M153.834 197.223C152.396 203.266 146.011 206.706 140.174 204.581L69.9725 179.029C65.0165 177.226 62.1988 171.995 63.4194 166.863L73.3886 124.958C74.8261 118.914 81.2106 115.475 87.0476 117.6L157.25 143.151C162.205 144.955 165.023 150.186 163.803 155.317L153.834 197.223Z" fill="url(#paint15_linear_4775_7253)"/>
</g>
<defs>
<filter id="filter0_f_4775_7253" x="-5.08691" y="-4.49414" width="260.175" height="260.174" filterUnits="userSpaceOnUse" color-interpolation-filters="sRGB">
<feFlood flood-opacity="0" result="BackgroundImageFix"/>
<feBlend mode="normal" in="SourceGraphic" in2="BackgroundImageFix" result="shape"/>
<feGaussianBlur stdDeviation="27" result="effect1_foregroundBlur_4775_7253"/>
</filter>
<linearGradient id="paint0_linear_4775_7253" x1="49.8941" y1="21.4277" x2="208.897" y2="54.5265" gradientUnits="userSpaceOnUse">
<stop stop-color="#A259FF"/>
<stop offset="1" stop-color="#3B3B3B"/>
</linearGradient>
<linearGradient id="paint1_linear_4775_7253" x1="212.862" y1="138.274" x2="156.245" y2="235.867" gradientUnits="userSpaceOnUse">
<stop stop-color="#A259FF" stop-opacity="0"/>
<stop offset="1" stop-color="#FF6250"/>
</linearGradient>
<linearGradient id="paint2_linear_4775_7253" x1="211.673" y1="49.6282" x2="225.016" y2="60.1079" gradientUnits="userSpaceOnUse">
<stop stop-color="#A259FF"/>
<stop offset="1" stop-color="#377DF7"/>
</linearGradient>
<linearGradient id="paint3_linear_4775_7253" x1="51.0836" y1="204.874" x2="50.6379" y2="218.149" gradientUnits="userSpaceOnUse">
<stop stop-color="#A259FF"/>
<stop offset="1" stop-color="#377DF7"/>
</linearGradient>
<linearGradient id="paint4_linear_4775_7253" x1="197.576" y1="178.364" x2="210.837" y2="177.603" gradientUnits="userSpaceOnUse">
<stop stop-color="#A259FF"/>
<stop offset="1" stop-color="#377DF7"/>
</linearGradient>
<linearGradient id="paint5_linear_4775_7253" x1="144.092" y1="148.631" x2="182.892" y2="241.362" gradientUnits="userSpaceOnUse">
<stop stop-color="#A259FF"/>
<stop offset="0.416667" stop-color="#A259FF" stop-opacity="0"/>
</linearGradient>
<linearGradient id="paint6_linear_4775_7253" x1="155.432" y1="141.926" x2="88.7777" y2="162.409" gradientUnits="userSpaceOnUse">
<stop stop-color="#FF7262"/>
<stop offset="0.317708" stop-color="#A259FF"/>
</linearGradient>
<linearGradient id="paint7_linear_4775_7253" x1="144.952" y1="112.147" x2="152.34" y2="127.708" gradientUnits="userSpaceOnUse">
<stop stop-color="#3B3B3B"/>
<stop offset="1" stop-color="#A259FF"/>
</linearGradient>
<linearGradient id="paint8_linear_4775_7253" x1="171.051" y1="85.428" x2="177.565" y2="91.822" gradientUnits="userSpaceOnUse">
<stop stop-color="#3B3B3B"/>
<stop offset="1" stop-color="#A259FF"/>
</linearGradient>
<linearGradient id="paint9_linear_4775_7253" x1="158.538" y1="114.972" x2="165.925" y2="130.532" gradientUnits="userSpaceOnUse">
<stop stop-color="#3B3B3B"/>
<stop offset="1" stop-color="#A259FF"/>
</linearGradient>
<linearGradient id="paint10_linear_4775_7253" x1="184.654" y1="88.2397" x2="191.169" y2="94.6329" gradientUnits="userSpaceOnUse">
<stop stop-color="#3B3B3B"/>
<stop offset="1" stop-color="#A259FF"/>
</linearGradient>
<linearGradient id="paint11_linear_4775_7253" x1="168.053" y1="104.096" x2="167.786" y2="122.401" gradientUnits="userSpaceOnUse">
<stop stop-color="#3B3B3B"/>
<stop offset="1" stop-color="#A259FF"/>
</linearGradient>
<linearGradient id="paint12_linear_4775_7253" x1="165.148" y1="108.111" x2="164.88" y2="126.415" gradientUnits="userSpaceOnUse">
<stop stop-color="#3B3B3B"/>
<stop offset="1" stop-color="#A259FF"/>
</linearGradient>
<linearGradient id="paint13_linear_4775_7253" x1="123.705" y1="59.3759" x2="135.467" y2="97.8224" gradientUnits="userSpaceOnUse">
<stop stop-color="#FF7262"/>
<stop offset="1" stop-color="#A259FF"/>
</linearGradient>
<linearGradient id="paint14_linear_4775_7253" x1="115.393" y1="123.782" x2="102.615" y2="76.5861" gradientUnits="userSpaceOnUse">
<stop stop-color="#A259FF"/>
<stop offset="1" stop-color="white"/>
</linearGradient>
<linearGradient id="paint15_linear_4775_7253" x1="137.015" y1="184.294" x2="88.1547" y2="59.9787" gradientUnits="userSpaceOnUse">
<stop stop-color="#A259FF"/>
<stop offset="0.666667" stop-color="white"/>
</linearGradient>
<clipPath id="clip0_4775_7253">
<rect width="250" height="250" fill="white" transform="translate(0 0.59375)"/>
</clipPath>
</defs>
</svg>
