<svg width="250" height="251" viewBox="0 0 250 251" fill="none" xmlns="http://www.w3.org/2000/svg">
<g clip-path="url(#clip0_4775_7280)">
<path d="M125.001 229.761C182.531 229.761 229.167 183.124 229.167 125.594C229.167 68.0648 182.531 21.4277 125.001 21.4277C67.4709 21.4277 20.834 68.0648 20.834 125.594C20.834 183.124 67.4709 229.761 125.001 229.761Z" fill="url(#paint0_linear_4775_7280)"/>
<g filter="url(#filter0_f_4775_7280)">
<path d="M131.34 201.68C169.86 201.68 201.087 170.454 201.087 131.934C201.087 93.414 169.86 62.1875 131.34 62.1875C92.8203 62.1875 61.5938 93.414 61.5938 131.934C61.5938 170.454 92.8203 201.68 131.34 201.68Z" fill="url(#paint1_linear_4775_7280)"/>
</g>
<path fill-rule="evenodd" clip-rule="evenodd" d="M56.2467 82.6405C57.9895 82.6405 59.4022 81.2277 59.4022 79.485C59.4022 77.7423 57.9895 76.3296 56.2467 76.3296C54.504 76.3296 53.0913 77.7423 53.0913 79.485C53.0913 81.2277 54.504 82.6405 56.2467 82.6405ZM56.2467 85.0072C59.2965 85.0072 61.7689 82.5348 61.7689 79.485C61.7689 76.4353 59.2965 73.9629 56.2467 73.9629C53.197 73.9629 50.7246 76.4353 50.7246 79.485C50.7246 82.5348 53.197 85.0072 56.2467 85.0072Z" fill="white"/>
<path fill-rule="evenodd" clip-rule="evenodd" d="M46.2838 180.467C48.0266 180.467 49.4393 179.054 49.4393 177.311C49.4393 175.568 48.0266 174.156 46.2838 174.156C44.5412 174.156 43.1284 175.568 43.1284 177.311C43.1284 179.054 44.5412 180.467 46.2838 180.467ZM46.2838 182.833C49.3336 182.833 51.806 180.361 51.806 177.311C51.806 174.261 49.3336 171.789 46.2838 171.789C43.2341 171.789 40.7617 174.261 40.7617 177.311C40.7617 180.361 43.2341 182.833 46.2838 182.833Z" fill="white"/>
<path fill-rule="evenodd" clip-rule="evenodd" d="M193.022 47.3143C194.764 47.3143 196.178 45.9016 196.178 44.1588C196.178 42.4162 194.764 41.0034 193.022 41.0034C191.279 41.0034 189.867 42.4162 189.867 44.1588C189.867 45.9016 191.279 47.3143 193.022 47.3143ZM193.022 49.681C196.072 49.681 198.544 47.2086 198.544 44.1588C198.544 41.1091 196.072 38.6367 193.022 38.6367C189.972 38.6367 187.5 41.1091 187.5 44.1588C187.5 47.2086 189.972 49.681 193.022 49.681Z" fill="white"/>
<path d="M59.23 38.809C59.4621 37.8475 60.8298 37.8475 61.0618 38.809L61.843 42.0451C61.926 42.3886 62.1942 42.6569 62.5378 42.7399L65.7739 43.5211C66.7354 43.7531 66.7354 45.1208 65.7739 45.3529L62.5378 46.134C62.1942 46.217 61.926 46.4852 61.843 46.8289L61.0618 50.0649C60.8298 51.0264 59.4621 51.0264 59.23 50.0649L58.4489 46.8289C58.3659 46.4852 58.0976 46.217 57.7541 46.134L54.518 45.3529C53.5565 45.1208 53.5565 43.7531 54.518 43.5211L57.7541 42.7399C58.0976 42.6569 58.3659 42.3886 58.4489 42.0451L59.23 38.809Z" fill="white"/>
<path d="M204.977 71.7807C205.231 70.7268 206.73 70.7268 206.985 71.7807L207.841 75.3278C207.932 75.7044 208.226 75.9985 208.602 76.0894L212.149 76.9457C213.204 77.2 213.204 78.6991 212.149 78.9536L208.602 79.8098C208.226 79.9008 207.932 80.1948 207.841 80.5714L206.985 84.1186C206.73 85.1725 205.231 85.1725 204.977 84.1186L204.12 80.5714C204.03 80.1948 203.735 79.9008 203.359 79.8098L199.812 78.9536C198.758 78.6991 198.758 77.2 199.812 76.9457L203.359 76.0894C203.735 75.9985 204.03 75.7044 204.12 75.3278L204.977 71.7807Z" fill="url(#paint2_linear_4775_7280)"/>
<path d="M49.8469 200.989C51.0461 200.797 52.0036 201.975 51.5702 203.11L48.6454 210.768C48.2121 211.903 46.713 212.143 45.9471 211.201L40.7769 204.838C40.0108 203.896 40.5525 202.478 41.7518 202.286L49.8469 200.989Z" fill="url(#paint3_linear_4775_7280)"/>
<path d="M191.103 183.571C190.803 182.394 191.889 181.334 193.059 181.662L200.952 183.88C202.12 184.209 202.496 185.68 201.627 186.528L195.76 192.254C194.89 193.103 193.429 192.692 193.129 191.515L191.103 183.571Z" fill="url(#paint4_linear_4775_7280)"/>
<g filter="url(#filter1_f_4775_7280)">
<path d="M180.276 205.726C180.276 211.315 153.765 215.845 121.062 215.845C88.3587 215.845 61.8477 211.315 61.8477 205.726C61.8477 200.137 88.3587 195.607 121.062 195.607C153.765 195.607 180.276 200.137 180.276 205.726Z" fill="url(#paint5_radial_4775_7280)"/>
</g>
<g filter="url(#filter2_i_4775_7280)">
<path d="M122.215 60.4586L83.6479 67.2591C80.5495 67.8054 78.4807 70.7601 79.0269 73.8584L88.7471 128.984C89.2934 132.083 92.2481 134.152 95.3465 133.605L133.914 126.805C137.013 126.259 139.081 123.304 138.535 120.205L128.815 65.0795C128.268 61.9812 125.313 59.9122 122.215 60.4586Z" fill="url(#paint6_linear_4775_7280)"/>
</g>
<path d="M122.772 88.7961L92.8124 94.0789C91.8035 94.2568 91.1299 95.2188 91.3078 96.2277L91.3089 96.2336C91.4868 97.2424 92.4488 97.9161 93.4576 97.7382L123.418 92.4554C124.426 92.2775 125.1 91.3155 124.923 90.3066L124.922 90.3007C124.743 89.2918 123.781 88.6182 122.772 88.7961Z" fill="url(#paint7_linear_4775_7280)"/>
<path d="M127.33 114.541L97.6275 119.778C96.6274 119.955 95.9562 120.889 96.1285 121.867L96.1295 121.873C96.3019 122.85 97.2524 123.5 98.2526 123.323L127.955 118.086C128.956 117.909 129.626 116.975 129.454 115.997L129.453 115.991C129.281 115.014 128.33 114.364 127.33 114.541Z" fill="url(#paint8_linear_4775_7280)"/>
<path d="M124.955 101.07L95.2525 106.307C94.2523 106.484 93.5812 107.419 93.7536 108.396L93.7546 108.402C93.9268 109.38 94.8774 110.029 95.8776 109.853L125.58 104.615C126.58 104.439 127.252 103.503 127.079 102.526L127.079 102.52C126.906 101.543 125.955 100.894 124.955 101.07Z" fill="url(#paint9_linear_4775_7280)"/>
<path d="M100.405 73.0821L91.6503 74.6259C89.7109 74.9679 88.4159 76.8173 88.7579 78.7566L89.1863 81.1863C89.5283 83.1256 91.3776 84.4205 93.317 84.0786L102.072 82.5348C104.011 82.1929 105.307 80.3435 104.964 78.4041L104.536 75.9745C104.194 74.0351 102.345 72.7402 100.405 73.0821Z" fill="#A259FF"/>
<g filter="url(#filter3_i_4775_7280)">
<path d="M168.178 75.6602H117.151C114.773 75.6602 112.846 77.5878 112.846 79.9656V103.95C112.846 106.328 114.773 108.255 117.151 108.255H168.178C170.556 108.255 172.483 106.328 172.483 103.95V79.9656C172.483 77.5878 170.556 75.6602 168.178 75.6602Z" fill="url(#paint10_linear_4775_7280)"/>
</g>
<path d="M125.44 96.9035C128.173 96.9035 130.39 94.6873 130.39 91.9536C130.39 89.2199 128.173 87.0039 125.44 87.0039C122.706 87.0039 120.49 89.2199 120.49 91.9536C120.49 94.6873 122.706 96.9035 125.44 96.9035Z" fill="white"/>
<path d="M143.128 96.9035C145.862 96.9035 148.077 94.6873 148.077 91.9536C148.077 89.2199 145.862 87.0039 143.128 87.0039C140.394 87.0039 138.178 89.2199 138.178 91.9536C138.178 94.6873 140.394 96.9035 143.128 96.9035Z" fill="white"/>
<path d="M160.817 96.9035C163.551 96.9035 165.767 94.6873 165.767 91.9536C165.767 89.2199 163.551 87.0039 160.817 87.0039C158.084 87.0039 155.867 89.2199 155.867 91.9536C155.867 94.6873 158.084 96.9035 160.817 96.9035Z" fill="white"/>
<path fill-rule="evenodd" clip-rule="evenodd" d="M116.138 161.838C116.565 159.411 118.879 157.791 121.305 158.219L146.794 162.713C150.276 163.328 153.424 164.944 155.655 167.281C157.885 169.616 159.396 172.936 158.748 176.612C158.1 180.288 155.545 182.891 152.651 184.324C149.756 185.758 146.244 186.203 142.76 185.589L82.1967 174.91C79.7705 174.482 78.1505 172.168 78.5783 169.742C79.0061 167.316 81.3197 165.696 83.7459 166.124L144.31 176.803C146.116 177.121 147.671 176.835 148.692 176.329C149.714 175.823 149.924 175.281 149.962 175.063C150 174.846 149.989 174.267 149.203 173.443C148.417 172.619 147.053 171.818 145.245 171.5L119.651 166.097C117.226 165.669 115.709 164.263 116.138 161.838Z" fill="url(#paint11_linear_4775_7280)"/>
<path fill-rule="evenodd" clip-rule="evenodd" d="M165.371 116.424C166.329 114.365 168.552 113.208 170.788 113.602L190.77 117.125C193.499 117.606 195.321 120.208 194.84 122.937C194.358 125.665 191.757 127.487 189.028 127.006L172.839 124.151L163.276 144.679C162.106 147.191 159.122 148.278 156.61 147.108C154.099 145.938 153.011 142.953 154.182 140.442L165.371 116.424Z" fill="url(#paint12_linear_4775_7280)"/>
<path d="M94.1482 192.681C100.059 193.724 105.696 189.776 106.738 183.866C107.78 177.955 103.833 172.319 97.9225 171.276C92.0117 170.234 86.3751 174.181 85.3329 180.092C84.2907 186.003 88.2375 191.639 94.1482 192.681Z" fill="url(#paint13_linear_4775_7280)"/>
<path d="M160.76 125.494L87.0069 112.49C81.4782 111.515 76.5677 115.484 76.9529 120.61L77.8739 150.524C78.1533 154.227 81.1752 157.351 85.1681 158.055L149.457 173.73L167.446 136.58C171.591 129.057 166.302 126.472 160.76 125.494Z" fill="url(#paint14_linear_4775_7280)"/>
<path d="M94.7881 187.32C97.7575 187.843 100.589 185.861 101.113 182.891C101.637 179.922 99.6537 177.09 96.6842 176.566C93.7146 176.043 90.8829 178.026 90.3593 180.996C89.8356 183.965 91.8185 186.796 94.7881 187.32Z" fill="url(#paint15_linear_4775_7280)"/>
<mask id="mask0_4775_7280" style="mask-type:alpha" maskUnits="userSpaceOnUse" x="76" y="112" width="93" height="62">
<path d="M160.76 125.494L87.0069 112.49C81.4782 111.515 76.5677 115.484 76.9529 120.61L77.8739 150.524C78.1533 154.227 81.1753 157.351 85.1681 158.055L149.457 173.73L167.446 136.58C169.563 131.882 166.302 126.472 160.76 125.494Z" fill="url(#paint16_linear_4775_7280)"/>
</mask>
<g mask="url(#mask0_4775_7280)">
<path d="M125.077 145.219C125.397 143.526 127.03 142.408 128.725 142.72C130.419 143.034 131.533 144.661 131.213 146.354L126.991 168.684C126.672 170.377 125.038 171.496 123.345 171.182C121.65 170.87 120.536 169.243 120.856 167.55L125.077 145.219Z" fill="#A259FF"/>
<path d="M180.174 130.695C181.588 130.941 182.54 132.287 182.301 133.703L182.127 134.729C181.887 136.144 180.546 137.093 179.131 136.847L76.0077 118.937C74.5931 118.691 73.6408 117.344 73.8807 115.929L74.0546 114.903C74.2945 113.488 75.6359 112.539 77.0506 112.785L180.174 130.695Z" fill="#A259FF"/>
<path d="M142.431 148.356C142.751 146.663 144.384 145.544 146.078 145.857C147.772 146.171 148.887 147.798 148.566 149.49L144.345 171.821C144.025 173.514 142.392 174.633 140.697 174.319C139.003 174.007 137.889 172.38 138.209 170.687L142.431 148.356Z" fill="#A259FF"/>
<path d="M107.724 142.083C108.044 140.39 109.677 139.271 111.371 139.584C113.065 139.897 114.18 141.524 113.859 143.217L109.638 165.547C109.318 167.24 107.685 168.359 105.99 168.046C104.296 167.733 103.182 166.106 103.502 164.413L107.724 142.083Z" fill="#A259FF"/>
<path d="M90.1707 138.987C90.4909 137.294 92.1238 136.175 93.8181 136.488C95.5124 136.801 96.6265 138.428 96.3064 140.121L92.0851 162.452C91.765 164.145 90.1321 165.263 88.4377 164.951C86.7434 164.637 85.6293 163.011 85.9494 161.318L90.1707 138.987Z" fill="#A259FF"/>
<path d="M74.9289 112.804C75.253 110.965 77.006 109.737 78.8442 110.062L168.971 125.953C170.809 126.277 172.036 128.031 171.712 129.869C171.387 131.708 169.635 132.935 167.797 132.611L77.6705 116.718C75.8322 116.395 74.6048 114.641 74.9289 112.804Z" fill="url(#paint17_linear_4775_7280)"/>
</g>
</g>
<defs>
<filter id="filter0_f_4775_7280" x="7.59375" y="8.1875" width="247.492" height="247.492" filterUnits="userSpaceOnUse" color-interpolation-filters="sRGB">
<feFlood flood-opacity="0" result="BackgroundImageFix"/>
<feBlend mode="normal" in="SourceGraphic" in2="BackgroundImageFix" result="shape"/>
<feGaussianBlur stdDeviation="27" result="effect1_foregroundBlur_4775_7280"/>
</filter>
<filter id="filter1_f_4775_7280" x="41.1603" y="174.92" width="159.803" height="61.6111" filterUnits="userSpaceOnUse" color-interpolation-filters="sRGB">
<feFlood flood-opacity="0" result="BackgroundImageFix"/>
<feBlend mode="normal" in="SourceGraphic" in2="BackgroundImageFix" result="shape"/>
<feGaussianBlur stdDeviation="10.3437" result="effect1_foregroundBlur_4775_7280"/>
</filter>
<filter id="filter2_i_4775_7280" x="78.9395" y="60.3711" width="62.0681" height="78.8862" filterUnits="userSpaceOnUse" color-interpolation-filters="sRGB">
<feFlood flood-opacity="0" result="BackgroundImageFix"/>
<feBlend mode="normal" in="SourceGraphic" in2="BackgroundImageFix" result="shape"/>
<feColorMatrix in="SourceAlpha" type="matrix" values="0 0 0 0 0 0 0 0 0 0 0 0 0 0 0 0 0 0 127 0" result="hardAlpha"/>
<feOffset dx="2.38455" dy="5.56394"/>
<feGaussianBlur stdDeviation="5.96137"/>
<feComposite in2="hardAlpha" operator="arithmetic" k2="-1" k3="1"/>
<feColorMatrix type="matrix" values="0 0 0 0 0.104618 0 0 0 0 0.465612 0 0 0 0 0.545833 0 0 0 0.15 0"/>
<feBlend mode="normal" in2="shape" result="effect1_innerShadow_4775_7280"/>
</filter>
<filter id="filter3_i_4775_7280" x="112.846" y="75.6602" width="65.2626" height="36.3463" filterUnits="userSpaceOnUse" color-interpolation-filters="sRGB">
<feFlood flood-opacity="0" result="BackgroundImageFix"/>
<feBlend mode="normal" in="SourceGraphic" in2="BackgroundImageFix" result="shape"/>
<feColorMatrix in="SourceAlpha" type="matrix" values="0 0 0 0 0 0 0 0 0 0 0 0 0 0 0 0 0 0 127 0" result="hardAlpha"/>
<feOffset dx="5.62585" dy="3.75056"/>
<feGaussianBlur stdDeviation="6.09467"/>
<feComposite in2="hardAlpha" operator="arithmetic" k2="-1" k3="1"/>
<feColorMatrix type="matrix" values="0 0 0 0 0.104618 0 0 0 0 0.465612 0 0 0 0 0.545833 0 0 0 0.09 0"/>
<feBlend mode="normal" in2="shape" result="effect1_innerShadow_4775_7280"/>
</filter>
<linearGradient id="paint0_linear_4775_7280" x1="49.895" y1="21.4278" x2="208.898" y2="54.5265" gradientUnits="userSpaceOnUse">
<stop stop-color="#A259FF"/>
<stop offset="1" stop-color="#3B3B3B"/>
</linearGradient>
<linearGradient id="paint1_linear_4775_7280" x1="161.231" y1="188.395" x2="114.714" y2="183.092" gradientUnits="userSpaceOnUse">
<stop stop-color="#A259FF" stop-opacity="0"/>
<stop offset="1" stop-color="#FF6250"/>
</linearGradient>
<linearGradient id="paint2_linear_4775_7280" x1="208.957" y1="74.0833" x2="222.299" y2="84.563" gradientUnits="userSpaceOnUse">
<stop stop-color="#A259FF"/>
<stop offset="1" stop-color="#377DF7"/>
</linearGradient>
<linearGradient id="paint3_linear_4775_7280" x1="51.0836" y1="204.874" x2="50.6379" y2="218.149" gradientUnits="userSpaceOnUse">
<stop stop-color="#A259FF"/>
<stop offset="1" stop-color="#377DF7"/>
</linearGradient>
<linearGradient id="paint4_linear_4775_7280" x1="194.86" y1="181.987" x2="208.12" y2="181.226" gradientUnits="userSpaceOnUse">
<stop stop-color="#A259FF"/>
<stop offset="1" stop-color="#377DF7"/>
</linearGradient>
<radialGradient id="paint5_radial_4775_7280" cx="0" cy="0" r="1" gradientUnits="userSpaceOnUse" gradientTransform="translate(121.062 205.726) rotate(90) scale(10.1188 59.2142)">
<stop stop-color="#2B2B2B"/>
<stop offset="1" stop-color="#2B2B2B" stop-opacity="0"/>
</radialGradient>
<linearGradient id="paint6_linear_4775_7280" x1="86.0986" y1="66.8269" x2="136.258" y2="65.2812" gradientUnits="userSpaceOnUse">
<stop stop-color="#A259FF"/>
<stop offset="1" stop-color="#3B3B3B"/>
</linearGradient>
<linearGradient id="paint7_linear_4775_7280" x1="118.27" y1="92.2957" x2="114.978" y2="82.536" gradientUnits="userSpaceOnUse">
<stop stop-color="#A259FF"/>
<stop offset="0.666667" stop-color="white"/>
</linearGradient>
<linearGradient id="paint8_linear_4775_7280" x1="122.856" y1="117.951" x2="119.697" y2="108.48" gradientUnits="userSpaceOnUse">
<stop stop-color="#A259FF"/>
<stop offset="0.666667" stop-color="white"/>
</linearGradient>
<linearGradient id="paint9_linear_4775_7280" x1="120.481" y1="104.48" x2="117.321" y2="95.0092" gradientUnits="userSpaceOnUse">
<stop stop-color="#A259FF"/>
<stop offset="0.666667" stop-color="white"/>
</linearGradient>
<linearGradient id="paint10_linear_4775_7280" x1="112.846" y1="115.578" x2="149.544" y2="60.4998" gradientUnits="userSpaceOnUse">
<stop stop-color="#A259FF"/>
<stop offset="1" stop-color="#FF6250"/>
</linearGradient>
<linearGradient id="paint11_linear_4775_7280" x1="141.924" y1="178.769" x2="129.343" y2="119.72" gradientUnits="userSpaceOnUse">
<stop stop-color="#A259FF"/>
<stop offset="0.666667" stop-color="white"/>
</linearGradient>
<linearGradient id="paint12_linear_4775_7280" x1="183.859" y1="123.947" x2="212.9" y2="157.749" gradientUnits="userSpaceOnUse">
<stop stop-color="#A259FF"/>
<stop offset="1" stop-color="#377DF7"/>
</linearGradient>
<linearGradient id="paint13_linear_4775_7280" x1="101.593" y1="187.75" x2="76.7701" y2="162.388" gradientUnits="userSpaceOnUse">
<stop stop-color="#A259FF"/>
<stop offset="0.666667" stop-color="white"/>
</linearGradient>
<linearGradient id="paint14_linear_4775_7280" x1="145.221" y1="158.773" x2="95.3243" y2="59.2975" gradientUnits="userSpaceOnUse">
<stop stop-color="#A259FF"/>
<stop offset="0.666667" stop-color="white"/>
</linearGradient>
<linearGradient id="paint15_linear_4775_7280" x1="89.5626" y1="183.625" x2="105.055" y2="186.611" gradientUnits="userSpaceOnUse">
<stop stop-color="white"/>
<stop offset="1" stop-color="#BCF3FF"/>
</linearGradient>
<linearGradient id="paint16_linear_4775_7280" x1="76.3047" y1="122.36" x2="167.648" y2="139.594" gradientUnits="userSpaceOnUse">
<stop stop-color="#AFF1FF"/>
<stop offset="1" stop-color="#65C8DE"/>
</linearGradient>
<linearGradient id="paint17_linear_4775_7280" x1="151.901" y1="127.866" x2="153.387" y2="109.058" gradientUnits="userSpaceOnUse">
<stop stop-color="#A259FF"/>
<stop offset="0.666667" stop-color="white"/>
</linearGradient>
<clipPath id="clip0_4775_7280">
<rect width="250" height="250" fill="white" transform="translate(0 0.59375)"/>
</clipPath>
</defs>
</svg>
