<svg width="250" height="251" viewBox="0 0 250 251" fill="none" xmlns="http://www.w3.org/2000/svg">
<g clip-path="url(#clip0_4775_7205)">
<path d="M125 229.761C182.53 229.761 229.166 183.124 229.166 125.594C229.166 68.0648 182.53 21.4277 125 21.4277C67.47 21.4277 20.833 68.0648 20.833 125.594C20.833 183.124 67.47 229.761 125 229.761Z" fill="url(#paint0_linear_4775_7205)"/>
<g filter="url(#filter0_f_4775_7205)">
<path d="M125 201.68C167.022 201.68 201.087 167.615 201.087 125.593C201.087 83.5712 167.022 49.5059 125 49.5059C82.9784 49.5059 48.9131 83.5712 48.9131 125.593C48.9131 167.615 82.9784 201.68 125 201.68Z" fill="url(#paint1_linear_4775_7205)"/>
</g>
<path fill-rule="evenodd" clip-rule="evenodd" d="M117.84 40.9745C119.583 40.9745 120.996 39.5617 120.996 37.819C120.996 36.0763 119.583 34.6635 117.84 34.6635C116.097 34.6635 114.685 36.0763 114.685 37.819C114.685 39.5617 116.097 40.9745 117.84 40.9745ZM117.84 43.3412C120.89 43.3412 123.363 40.8688 123.363 37.819C123.363 34.7692 120.89 32.2969 117.84 32.2969C114.79 32.2969 112.318 34.7692 112.318 37.819C112.318 40.8688 114.79 43.3412 117.84 43.3412Z" fill="white"/>
<path fill-rule="evenodd" clip-rule="evenodd" d="M42.6598 185.902C44.4026 185.902 45.8153 184.489 45.8153 182.746C45.8153 181.004 44.4026 179.591 42.6598 179.591C40.9171 179.591 39.5044 181.004 39.5044 182.746C39.5044 184.489 40.9171 185.902 42.6598 185.902ZM42.6598 188.269C45.7096 188.269 48.182 185.796 48.182 182.746C48.182 179.697 45.7096 177.225 42.6598 177.225C39.6101 177.225 37.1377 179.697 37.1377 182.746C37.1377 185.796 39.6101 188.269 42.6598 188.269Z" fill="white"/>
<path fill-rule="evenodd" clip-rule="evenodd" d="M215.668 178.656C217.411 178.656 218.824 177.243 218.824 175.5C218.824 173.757 217.411 172.345 215.668 172.345C213.925 172.345 212.513 173.757 212.513 175.5C212.513 177.243 213.925 178.656 215.668 178.656ZM215.668 181.023C218.718 181.023 221.191 178.55 221.191 175.5C221.191 172.45 218.718 169.979 215.668 169.979C212.618 169.979 210.146 172.45 210.146 175.5C210.146 178.55 212.618 181.023 215.668 181.023Z" fill="white"/>
<path d="M66.4771 55.1118C66.7092 54.1502 68.0768 54.1502 68.3089 55.1118L69.0901 58.3478C69.173 58.6914 69.4413 58.9597 69.7849 59.0426L73.021 59.8238C73.9825 60.0559 73.9825 61.4235 73.021 61.6556L69.7849 62.4368C69.4413 62.5197 69.173 62.7879 69.0901 63.1316L68.3089 66.3676C68.0768 67.3291 66.7092 67.3291 66.4771 66.3676L65.696 63.1316C65.613 62.7879 65.3448 62.5197 65.0011 62.4368L61.7651 61.6556C60.8036 61.4235 60.8036 60.0559 61.7651 59.8238L65.0011 59.0426C65.3448 58.9597 65.613 58.6914 65.696 58.3478L66.4771 55.1118Z" fill="white"/>
<path d="M200.45 196.78C200.704 195.727 202.203 195.727 202.458 196.78L203.314 200.327C203.404 200.704 203.699 200.999 204.076 201.089L207.623 201.946C208.676 202.2 208.676 203.699 207.623 203.953L204.076 204.81C203.699 204.901 203.404 205.195 203.314 205.571L202.458 209.118C202.203 210.173 200.704 210.173 200.45 209.118L199.593 205.571C199.502 205.195 199.208 204.901 198.832 204.81L195.285 203.953C194.231 203.699 194.231 202.2 195.285 201.946L198.832 201.089C199.208 200.999 199.502 200.704 199.593 200.327L200.45 196.78Z" fill="url(#paint2_linear_4775_7205)"/>
<path d="M51.6584 210.048C52.8577 209.856 53.8151 211.034 53.3818 212.169L50.4569 219.827C50.0236 220.962 48.5245 221.202 47.7586 220.259L42.5884 213.897C41.8223 212.955 42.364 211.536 43.5633 211.344L51.6584 210.048Z" fill="url(#paint3_linear_4775_7205)"/>
<path d="M205.598 63.1002C205.298 61.9233 206.385 60.8628 207.554 61.1915L215.447 63.4094C216.615 63.7379 216.991 65.209 216.122 66.0574L210.255 71.7836C209.385 72.6319 207.924 72.2212 207.624 71.0443L205.598 63.1002Z" fill="url(#paint4_linear_4775_7205)"/>
<path d="M179.318 118.085L162.205 121.412C157.335 122.357 154.156 127.072 155.102 131.941C156.049 136.809 160.763 139.989 165.631 139.043L182.745 135.716C187.614 134.769 190.793 130.056 189.847 125.187C188.901 120.318 184.187 117.138 179.318 118.085Z" fill="url(#paint5_linear_4775_7205)"/>
<path d="M186.043 126.866C186.129 124.649 184.403 122.783 182.185 122.697C179.969 122.61 178.102 124.337 178.016 126.553C177.929 128.77 179.656 130.637 181.873 130.724C184.09 130.81 185.957 129.082 186.043 126.866Z" fill="#EBEBEB"/>
<path d="M182.447 128.866C183.639 128.635 184.417 127.481 184.186 126.289C183.954 125.097 182.8 124.319 181.608 124.55C180.417 124.782 179.638 125.936 179.87 127.128C180.102 128.319 181.256 129.098 182.447 128.866Z" fill="#DBDBDB"/>
<path d="M152.184 91.0372L64.802 108.023C59.8914 108.977 56.6843 113.732 57.6388 118.642L69.4451 179.38C70.3996 184.291 75.1542 187.497 80.0649 186.543L167.446 169.558C172.358 168.603 175.564 163.849 174.61 158.938L162.803 98.2004C161.849 93.2901 157.095 90.0827 152.184 91.0372Z" fill="url(#paint6_linear_4775_7205)"/>
<path d="M150.587 63.4187L168.436 109.556C169.435 112.135 168.151 115.035 165.577 116.033L92.4036 144.341C89.829 145.34 86.9287 144.055 85.9292 141.476L68.08 95.3387C67.1535 92.9384 68.3438 90.2413 70.7448 89.3148L144.56 60.7597C146.962 59.8332 149.658 61.0234 150.585 63.4245L150.587 63.4187Z" fill="url(#paint7_linear_4775_7205)"/>
<path d="M154.024 107.655C154.939 110.027 153.763 112.695 151.39 113.61C149.019 114.526 146.35 113.348 145.436 110.976C144.52 108.604 145.697 105.937 148.07 105.021C150.441 104.106 153.11 105.284 154.024 107.655Z" fill="url(#paint8_linear_4775_7205)"/>
<path d="M159.311 105.606C160.227 107.978 159.049 110.646 156.678 111.561C154.306 112.476 151.638 111.299 150.722 108.927C149.807 106.555 150.985 103.888 153.356 102.973C155.729 102.057 158.396 103.234 159.311 105.606Z" fill="url(#paint9_linear_4775_7205)"/>
<path d="M90.1348 90.9199L78.1463 95.5575C77.1797 95.9316 76.6993 97.0186 77.0732 97.9851L79.8605 105.19C80.2344 106.156 81.3212 106.637 82.2878 106.263L94.2758 101.625C95.2432 101.251 95.7233 100.164 95.3492 99.1979L92.562 91.9932C92.188 91.0264 91.101 90.5459 90.1348 90.9199Z" fill="url(#paint10_linear_4775_7205)"/>
<path d="M144.7 76.5556L137.69 79.2655C136.068 79.8884 134.247 79.0846 133.62 77.4636C132.997 75.841 133.801 74.0201 135.422 73.393L142.431 70.6832C144.053 70.0562 145.875 70.8641 146.502 72.4852C147.125 74.1077 146.321 75.9286 144.7 76.5556Z" fill="white"/>
<path d="M83.7418 116.912L83.252 117.531C83.252 117.531 83.2115 117.575 83.1823 117.586C83.1239 117.609 83.061 117.594 83.02 117.562C82.9421 117.496 82.9319 117.395 82.9967 117.327L83.661 116.465C83.7175 116.399 83.8314 116.385 83.8962 116.441C83.9314 116.471 83.95 116.506 83.9619 116.55L85.5595 120.675C85.5916 120.758 85.5562 120.853 85.4645 120.889C85.381 120.92 85.2829 120.877 85.2509 120.793L83.7502 116.908L83.7418 116.912Z" fill="#F8F8F8"/>
<path d="M86.6082 120.129L87.972 117.423C88.1327 117.093 88.1476 116.734 88.0244 116.412C87.9187 116.137 87.7087 115.902 87.4236 115.757C87.1023 115.594 86.7357 115.586 86.4245 115.71C86.1408 115.82 85.9023 116.021 85.7539 116.308L85.6139 116.591C85.5754 116.677 85.4695 116.714 85.3954 116.67C85.3088 116.631 85.2729 116.526 85.3163 116.452L85.4547 116.164C85.6423 115.805 85.9514 115.538 86.306 115.402C86.698 115.251 87.152 115.249 87.5705 115.466C87.9421 115.649 88.2017 115.952 88.3346 116.298C88.4868 116.695 88.482 117.156 88.2745 117.575L87.1069 119.895L89.2342 119.078C89.316 119.042 89.4126 119.081 89.4478 119.173C89.4798 119.256 89.4361 119.355 89.3527 119.387L86.849 120.357L86.824 120.367C86.7781 120.385 86.7273 120.389 86.6896 120.366C86.604 120.317 86.5671 120.221 86.6057 120.135L86.6082 120.129Z" fill="#F8F8F8"/>
<path d="M91.5932 113.678L90.894 115.32C91.1992 115.27 91.5217 115.299 91.8224 115.433C92.2318 115.615 92.5325 115.949 92.6829 116.341C92.8333 116.734 92.8378 117.182 92.6512 117.593C92.4691 118.004 92.1358 118.308 91.7454 118.463C91.3623 118.61 90.9139 118.614 90.5024 118.428C90.4174 118.393 90.3748 118.295 90.416 118.203C90.4488 118.113 90.5489 118.075 90.6412 118.116C90.9673 118.255 91.3161 118.255 91.6249 118.136C91.9338 118.017 92.1974 117.782 92.346 117.457C92.4918 117.128 92.4864 116.776 92.3677 116.467C92.249 116.159 92.0144 115.895 91.6883 115.757C91.3632 115.609 91.0117 115.615 90.7028 115.733C90.653 115.753 90.5969 115.745 90.5494 115.72L90.5411 115.724C90.4503 115.687 90.4103 115.582 90.453 115.494L91.1249 113.915L89.4021 114.576C89.3119 114.616 89.2138 114.572 89.1802 114.485C89.145 114.393 89.1886 114.294 89.2762 114.261L91.3786 113.454C91.4682 113.415 91.567 113.458 91.6005 113.546C91.6104 113.571 91.6114 113.6 91.6068 113.625C91.6068 113.649 91.6005 113.67 91.5923 113.688L91.5932 113.678Z" fill="#F8F8F8"/>
<path d="M96.6349 115.504L94.2029 116.447L94.182 116.455C94.1485 116.468 94.1078 116.474 94.0734 116.459C93.9828 116.436 93.9348 116.335 93.9692 116.25L95.3179 112.009L95.3224 111.997C95.3541 111.904 95.4384 111.862 95.5317 111.893C95.5643 111.905 95.5888 111.929 95.6105 111.949C95.615 111.962 95.6268 111.966 95.6286 111.971L95.6368 111.992L96.8279 115.071L97.1286 114.955C97.2201 114.921 97.3188 114.964 97.3505 115.048C97.3822 115.131 97.3388 115.229 97.2509 115.262L96.9511 115.378L97.2473 116.15C97.279 116.233 97.2355 116.331 97.1476 116.365C97.0643 116.397 96.9665 116.353 96.9339 116.27L96.6377 115.498L96.6349 115.504ZM96.5172 115.195L95.4982 112.567L94.3931 116.021L96.5199 115.204L96.5172 115.195Z" fill="#F8F8F8"/>
<path d="M102.449 113.807C102.359 113.769 102.319 113.665 102.363 113.581C102.402 113.495 102.504 113.451 102.592 113.493C102.918 113.632 103.268 113.632 103.576 113.513C103.885 113.394 104.14 113.163 104.287 112.834C104.434 112.504 104.429 112.156 104.311 111.848C104.191 111.535 103.956 111.271 103.632 111.127C103.311 110.988 102.957 110.99 102.648 111.107C102.335 111.228 102.076 111.461 101.929 111.79C101.89 111.877 101.786 111.917 101.704 111.877C101.678 111.873 101.658 111.856 101.648 111.841L101.644 111.833C101.644 111.833 101.631 111.824 101.628 111.816C101.615 111.806 101.607 111.785 101.6 111.769C101.597 111.76 101.596 111.746 101.591 111.733L101.108 109.837C101.089 109.788 101.098 109.736 101.126 109.697C101.141 109.662 101.174 109.635 101.215 109.619L103.31 108.816C103.399 108.776 103.497 108.819 103.532 108.907C103.568 109.003 103.523 109.097 103.436 109.131L101.475 109.884L101.831 111.288C102.008 111.061 102.244 110.89 102.515 110.786C102.908 110.635 103.344 110.625 103.761 110.815C104.179 110.994 104.468 111.323 104.622 111.723C104.769 112.107 104.785 112.561 104.594 112.974C104.41 113.379 104.073 113.686 103.686 113.835C103.293 113.985 102.845 113.99 102.436 113.808L102.449 113.807Z" fill="#F8F8F8"/>
<path d="M105.542 109.086C105.642 108.421 106.003 107.817 106.739 107.501C106.819 107.461 106.917 107.505 106.958 107.586C106.992 107.677 106.949 107.775 106.867 107.811C106.247 108.078 105.976 108.556 105.871 109.132C105.817 109.453 105.839 109.809 105.9 110.154C106.053 109.741 106.372 109.389 106.815 109.22C107.644 108.901 108.562 109.309 108.876 110.127C109.192 110.949 108.787 111.865 107.962 112.186C107.158 112.495 106.259 112.113 105.924 111.327C105.875 111.236 105.838 111.14 105.798 111.036C105.574 110.438 105.443 109.736 105.547 109.084L105.542 109.086ZM106.228 111.182C106.24 111.215 106.259 111.237 106.272 111.26C106.28 111.281 106.285 111.294 106.281 111.309C106.58 111.851 107.246 112.102 107.835 111.876C108.49 111.625 108.811 110.894 108.565 110.251C108.318 109.609 107.586 109.287 106.932 109.538C106.289 109.785 105.967 110.516 106.214 111.159L106.223 111.183L106.228 111.182Z" fill="#F8F8F8"/>
<path d="M111 110.762L111.136 106.177L108.962 107.012C108.88 107.047 108.783 107.008 108.752 106.925C108.72 106.841 108.763 106.743 108.847 106.711L111.224 105.798C111.253 105.773 111.282 105.762 111.32 105.762C111.366 105.768 111.414 105.793 111.441 105.825C111.457 105.843 111.466 105.854 111.473 105.87C111.485 105.904 111.486 105.932 111.479 105.964L111.339 110.77C111.336 110.838 111.291 110.898 111.233 110.92C111.208 110.93 111.195 110.935 111.166 110.932C111.074 110.929 111 110.848 110.995 110.763L111 110.762Z" fill="#F8F8F8"/>
<path d="M113.782 104.768C114.295 104.571 114.88 104.825 115.078 105.337C115.197 105.651 115.148 105.981 114.986 106.244C115.602 106.256 116.179 106.637 116.412 107.242C116.723 108.051 116.326 108.951 115.518 109.265C114.713 109.575 113.81 109.179 113.496 108.372C113.263 107.767 113.433 107.098 113.873 106.676C113.582 106.591 113.328 106.378 113.208 106.065C113.011 105.552 113.258 104.973 113.78 104.773L113.782 104.768ZM115.402 108.951C116.044 108.704 116.351 107.993 116.108 107.359C115.866 106.73 115.159 106.407 114.515 106.654C113.881 106.897 113.569 107.616 113.811 108.246C114.055 108.884 114.768 109.194 115.402 108.951ZM114.389 106.335C114.731 106.193 114.906 105.801 114.774 105.454C114.64 105.108 114.251 104.942 113.905 105.075C113.559 105.208 113.39 105.593 113.524 105.939C113.657 106.285 114.044 106.462 114.392 106.333L114.389 106.335Z" fill="#F8F8F8"/>
<path d="M121.766 101.679C122.538 101.383 123.381 101.711 123.748 102.417C123.761 102.427 123.764 102.435 123.773 102.446C123.828 102.563 123.882 102.691 123.933 102.824C124.162 103.421 124.291 104.132 124.196 104.782C124.092 105.434 123.727 106.052 123 106.365L122.991 106.369C122.9 106.404 122.805 106.369 122.772 106.285C122.738 106.193 122.774 106.102 122.863 106.059C123.473 105.791 123.763 105.312 123.859 104.738C123.909 104.408 123.899 104.058 123.83 103.716C123.677 104.129 123.353 104.468 122.903 104.641C122.085 104.955 121.168 104.561 120.845 103.732C120.531 102.915 120.94 101.996 121.758 101.683L121.766 101.679ZM123.511 102.699C123.265 102.057 122.54 101.741 121.886 101.993C121.243 102.239 120.92 102.966 121.165 103.605C121.416 104.26 122.143 104.569 122.785 104.322C123.44 104.072 123.763 103.354 123.507 102.7L123.511 102.699Z" fill="#F8F8F8"/>
<path d="M125.268 102.909C125.036 102.305 124.975 101.696 125.089 101.169C125.21 100.664 125.497 100.238 125.951 100.063C126.406 99.8882 126.908 100.011 127.335 100.302C127.767 100.616 128.145 101.102 128.382 101.705C128.613 102.309 128.662 102.923 128.549 103.44C128.43 103.95 128.144 104.38 127.69 104.555C127.235 104.729 126.733 104.606 126.303 104.307C125.871 104.004 125.499 103.51 125.267 102.905L125.268 102.909ZM125.581 102.789C125.793 103.34 126.133 103.779 126.5 104.035C126.864 104.288 127.248 104.366 127.57 104.241C127.891 104.118 128.114 103.803 128.221 103.37C128.317 102.935 128.281 102.38 128.07 101.829C127.859 101.279 127.509 100.843 127.147 100.585C126.774 100.322 126.399 100.255 126.077 100.378C125.756 100.501 125.519 100.808 125.426 101.25C125.33 101.684 125.374 102.237 125.587 102.792L125.581 102.789Z" fill="#F8F8F8"/>
<path d="M129.763 99.1109L129.274 99.7304C129.274 99.7304 129.233 99.7739 129.204 99.7857C129.145 99.8083 129.083 99.7938 129.041 99.7621C128.963 99.696 128.953 99.5946 129.019 99.5266L129.683 98.6634C129.74 98.5991 129.853 98.5837 129.918 98.6408C129.953 98.6698 129.972 98.706 129.983 98.7495L131.581 102.874C131.613 102.958 131.577 103.052 131.486 103.087C131.403 103.12 131.305 103.076 131.272 102.992L129.772 99.1082L129.763 99.1109Z" fill="#F8F8F8"/>
<path d="M132.629 102.325L133.993 99.6189C134.154 99.2892 134.168 98.9287 134.045 98.6081C133.939 98.3327 133.73 98.0972 133.445 97.9532C133.123 97.7892 132.756 97.782 132.445 97.9061C132.162 98.0148 131.925 98.2204 131.774 98.503L131.635 98.7865C131.596 98.8735 131.49 98.9088 131.416 98.8653C131.33 98.8273 131.293 98.7213 131.337 98.647L131.475 98.3599C131.663 98.0003 131.972 97.7331 132.325 97.5927C132.717 97.4423 133.171 97.4405 133.59 97.6579C133.961 97.8408 134.221 98.1434 134.354 98.4894C134.506 98.8852 134.501 99.3472 134.293 99.7666L133.126 102.086L135.253 101.269C135.335 101.233 135.434 101.277 135.467 101.364C135.499 101.448 135.455 101.546 135.372 101.578L132.868 102.548L132.843 102.558C132.797 102.575 132.746 102.581 132.709 102.557C132.623 102.508 132.586 102.412 132.625 102.326L132.629 102.325Z" fill="#F8F8F8"/>
<path d="M141.461 94.3865L140.761 96.0296C141.067 95.9789 141.389 96.0079 141.689 96.142C142.1 96.324 142.4 96.6583 142.551 97.0505C142.701 97.4427 142.705 97.8911 142.519 98.3023C142.336 98.7126 142.003 99.017 141.617 99.17C141.234 99.3177 140.781 99.324 140.369 99.1374C140.284 99.103 140.242 99.0043 140.283 98.9119C140.318 98.8267 140.416 98.7842 140.508 98.8249C140.834 98.9635 141.184 98.9635 141.493 98.8449C141.801 98.7262 142.065 98.4907 142.213 98.1664C142.359 97.8376 142.353 97.4853 142.235 97.1764C142.117 96.8684 141.881 96.6039 141.555 96.4662C141.231 96.3177 140.878 96.324 140.57 96.4427C140.52 96.4617 140.465 96.4545 140.417 96.4291L140.408 96.4327C140.318 96.3956 140.277 96.2914 140.321 96.2026L140.992 94.6247L139.269 95.286C139.179 95.3249 139.081 95.2814 139.047 95.1936C139.013 95.1021 139.056 95.0034 139.143 94.9699L141.245 94.1628C141.336 94.1238 141.434 94.1673 141.467 94.2552C141.477 94.2805 141.478 94.3086 141.474 94.334C141.474 94.3584 141.467 94.3793 141.46 94.3965L141.461 94.3865Z" fill="#F8F8F8"/>
<path d="M146.503 96.2125L144.067 97.1482L144.06 97.1555L144.048 97.16C144.015 97.1727 143.976 97.1835 143.94 97.1636C143.849 97.141 143.801 97.0395 143.835 96.9544L145.184 92.7134L145.189 92.7017C145.22 92.6084 145.305 92.5667 145.398 92.5984C145.43 92.6093 145.455 92.6337 145.477 92.6537C145.481 92.6663 145.489 92.6727 145.495 92.6754L145.503 92.6962L146.694 95.7759L146.995 95.6609C147.086 95.6256 147.185 95.669 147.217 95.7524C147.248 95.8357 147.205 95.9344 147.117 95.968L146.817 96.083L147.113 96.8547C147.145 96.9381 147.102 97.0359 147.014 97.0694C146.93 97.102 146.833 97.0585 146.8 96.9743L146.504 96.2026L146.503 96.2125ZM146.384 95.9046L145.366 93.275L144.26 96.7288L146.388 95.9127L146.384 95.9046Z" fill="#F8F8F8"/>
<path d="M148.47 96.0023C148.379 95.9651 148.339 95.861 148.384 95.7767C148.422 95.6907 148.527 95.6499 148.613 95.6889C148.939 95.8265 149.288 95.8265 149.597 95.7088C149.905 95.5901 150.161 95.3582 150.308 95.0285C150.454 94.6997 150.45 94.3519 150.331 94.043C150.211 93.7305 149.976 93.4669 149.653 93.3229C149.329 93.1789 148.977 93.1843 148.669 93.303C148.356 93.4235 148.097 93.6572 147.95 93.986C147.911 94.0729 147.808 94.1164 147.724 94.072C147.699 94.0675 147.678 94.0521 147.668 94.0367L147.664 94.0285C147.664 94.0285 147.652 94.0195 147.648 94.0104C147.635 94.0014 147.627 93.9805 147.621 93.9642C147.617 93.9552 147.616 93.9416 147.612 93.9289L147.128 92.0331C147.109 91.9823 147.118 91.9316 147.146 91.8918C147.162 91.8573 147.194 91.8302 147.236 91.8148L149.329 91.0107C149.42 90.9713 149.518 91.0149 149.551 91.1025C149.588 91.1988 149.543 91.2921 149.455 91.3256L147.495 92.0784L147.852 93.4823C148.03 93.2613 148.264 93.0847 148.536 92.9814C148.927 92.8302 149.364 92.8211 149.781 93.0104C150.2 93.1898 150.489 93.5186 150.643 93.9189C150.789 94.303 150.806 94.7559 150.615 95.1689C150.431 95.5747 150.094 95.8809 149.706 96.0303C149.314 96.1807 148.866 96.1852 148.456 96.0032L148.47 96.0023Z" fill="#F8F8F8"/>
<path d="M151.562 91.2811C151.662 90.6159 152.021 90.0086 152.759 89.6969C152.839 89.6566 152.937 89.7002 152.977 89.7805C153.012 89.8722 152.969 89.9703 152.887 90.0066C152.269 90.2775 151.995 90.7509 151.891 91.3273C151.837 91.6489 151.859 92.0039 151.92 92.35C152.073 91.9369 152.392 91.5846 152.834 91.4152C153.664 91.0962 154.582 91.5049 154.896 92.3219C155.212 93.1443 154.807 94.0601 153.982 94.3817C153.177 94.6905 152.28 94.3083 151.944 93.5221C151.895 93.4315 151.858 93.3355 151.818 93.2313C151.593 92.6326 151.462 91.9315 151.567 91.2793L151.562 91.2811ZM152.248 93.3771C152.261 93.4106 152.279 93.4324 152.292 93.4559C152.3 93.4768 152.305 93.4895 152.301 93.5049C152.6 94.0456 153.266 94.2974 153.854 94.0719C154.509 93.8201 154.831 93.0891 154.585 92.4469C154.338 91.8038 153.607 91.4822 152.952 91.7331C152.309 91.9804 151.987 92.7114 152.233 93.3536L152.243 93.3789L152.248 93.3771Z" fill="#F8F8F8"/>
<path d="M128.036 113.279L88.8535 128.438L89.5983 130.363L128.78 115.204L128.036 113.279Z" fill="url(#paint11_linear_4775_7205)"/>
<path d="M118.249 121.984L90.5088 132.716L91.2533 134.642L118.993 123.91L118.249 121.984Z" fill="url(#paint12_linear_4775_7205)"/>
<path d="M128.828 75.9468L111.214 82.7611C110.682 82.9668 110.418 83.5644 110.623 84.096C110.829 84.6277 111.427 84.892 111.959 84.6863L129.573 77.8719C130.104 77.6662 130.368 77.0686 130.162 76.537C129.957 76.0054 129.359 75.7411 128.828 75.9468Z" fill="#3B3B3B"/>
<path d="M161.106 125.129L69.3008 142.975L76.445 179.729L168.251 161.883L161.106 125.129Z" fill="url(#paint13_linear_4775_7205)"/>
<path opacity="0.2" d="M161.106 125.129L69.3008 142.975L76.445 179.729L168.251 161.883L161.106 125.129Z" fill="black"/>
<path d="M169.586 183.881L79.136 188.458C74.6323 188.686 70.647 185.567 69.7866 181.14L56.7663 114.156C56.4591 112.576 58.0832 111.319 59.536 112.014C61.2219 112.819 63.0953 113.161 64.9625 113.003L146.216 106.053C150.829 105.658 154.997 108.805 155.88 113.349L169.589 183.875C169.589 183.877 169.587 183.88 169.586 183.881Z" fill="url(#paint14_linear_4775_7205)"/>
<path d="M150.374 150.892C152.479 150.483 153.808 148.207 153.342 145.809C152.876 143.412 150.792 141.799 148.687 142.208C146.582 142.617 145.253 144.893 145.719 147.291C146.186 149.689 148.27 151.301 150.374 150.892Z" fill="#EBEBEB"/>
<path d="M151.303 146.206C151.519 147.321 150.901 148.379 149.923 148.568C148.945 148.758 147.976 148.009 147.759 146.895C147.543 145.782 148.16 144.724 149.139 144.533C150.117 144.343 151.086 145.092 151.303 146.206Z" fill="#DBDBDB"/>
</g>
<defs>
<filter id="filter0_f_4775_7205" x="-5.08691" y="-4.49414" width="260.174" height="260.174" filterUnits="userSpaceOnUse" color-interpolation-filters="sRGB">
<feFlood flood-opacity="0" result="BackgroundImageFix"/>
<feBlend mode="normal" in="SourceGraphic" in2="BackgroundImageFix" result="shape"/>
<feGaussianBlur stdDeviation="27" result="effect1_foregroundBlur_4775_7205"/>
</filter>
<linearGradient id="paint0_linear_4775_7205" x1="49.8941" y1="21.4277" x2="208.897" y2="54.5265" gradientUnits="userSpaceOnUse">
<stop stop-color="#A259FF"/>
<stop offset="1" stop-color="#3B3B3B"/>
</linearGradient>
<linearGradient id="paint1_linear_4775_7205" x1="73.5508" y1="49.5059" x2="220.705" y2="77.8855" gradientUnits="userSpaceOnUse">
<stop stop-color="#A259FF" stop-opacity="0"/>
<stop offset="1" stop-color="#FF6250"/>
</linearGradient>
<linearGradient id="paint2_linear_4775_7205" x1="204.429" y1="199.084" x2="217.771" y2="209.563" gradientUnits="userSpaceOnUse">
<stop stop-color="#A259FF"/>
<stop offset="1" stop-color="#377DF7"/>
</linearGradient>
<linearGradient id="paint3_linear_4775_7205" x1="52.8952" y1="213.932" x2="52.4494" y2="227.207" gradientUnits="userSpaceOnUse">
<stop stop-color="#A259FF"/>
<stop offset="1" stop-color="#377DF7"/>
</linearGradient>
<linearGradient id="paint4_linear_4775_7205" x1="209.355" y1="61.516" x2="222.616" y2="60.7555" gradientUnits="userSpaceOnUse">
<stop stop-color="#A259FF"/>
<stop offset="1" stop-color="#377DF7"/>
</linearGradient>
<linearGradient id="paint5_linear_4775_7205" x1="159.014" y1="122.031" x2="191.714" y2="127.685" gradientUnits="userSpaceOnUse">
<stop stop-color="#A259FF"/>
<stop offset="1" stop-color="#3B3B3B"/>
</linearGradient>
<linearGradient id="paint6_linear_4775_7205" x1="137.498" y1="204.304" x2="102.173" y2="134.933" gradientUnits="userSpaceOnUse">
<stop stop-color="#A259FF"/>
<stop offset="1" stop-color="#3B3B3B"/>
</linearGradient>
<linearGradient id="paint7_linear_4775_7205" x1="79.7244" y1="85.6477" x2="164.798" y2="78.2996" gradientUnits="userSpaceOnUse">
<stop stop-color="#A259FF"/>
<stop offset="1" stop-color="#FF6250"/>
</linearGradient>
<linearGradient id="paint8_linear_4775_7205" x1="145.173" y1="106.133" x2="154.102" y2="104.546" gradientUnits="userSpaceOnUse">
<stop stop-color="#A259FF"/>
<stop offset="1" stop-color="#FF6250"/>
</linearGradient>
<linearGradient id="paint9_linear_4775_7205" x1="150.46" y1="104.084" x2="159.389" y2="102.496" gradientUnits="userSpaceOnUse">
<stop stop-color="#A259FF"/>
<stop offset="1" stop-color="#3B3B3B"/>
</linearGradient>
<linearGradient id="paint10_linear_4775_7205" x1="78.9038" y1="95.265" x2="94.8727" y2="93.7106" gradientUnits="userSpaceOnUse">
<stop stop-color="#A259FF"/>
<stop offset="1" stop-color="#3B3B3B"/>
</linearGradient>
<linearGradient id="paint11_linear_4775_7205" x1="95.1971" y1="125.983" x2="101.23" y2="134.459" gradientUnits="userSpaceOnUse">
<stop stop-color="#A259FF"/>
<stop offset="1" stop-color="#FF6250"/>
</linearGradient>
<linearGradient id="paint12_linear_4775_7205" x1="94.9996" y1="130.979" x2="101.619" y2="138.609" gradientUnits="userSpaceOnUse">
<stop stop-color="#A259FF"/>
<stop offset="1" stop-color="#FF6250"/>
</linearGradient>
<linearGradient id="paint13_linear_4775_7205" x1="84.1645" y1="140.085" x2="165.898" y2="161.56" gradientUnits="userSpaceOnUse">
<stop stop-color="#A259FF"/>
<stop offset="1" stop-color="#3B3B3B"/>
</linearGradient>
<linearGradient id="paint14_linear_4775_7205" x1="145.194" y1="161.57" x2="3.60562" y2="93.6173" gradientUnits="userSpaceOnUse">
<stop stop-color="#A259FF"/>
<stop offset="0.666667" stop-color="white"/>
</linearGradient>
<clipPath id="clip0_4775_7205">
<rect width="250" height="250" fill="white" transform="translate(0 0.59375)"/>
</clipPath>
</defs>
</svg>
