<svg width="100" height="101" viewBox="0 0 100 101" fill="none" xmlns="http://www.w3.org/2000/svg">
<path d="M81.25 81.8438H18.75C17.0924 81.8438 15.5027 81.1853 14.3306 80.0132C13.1585 78.8411 12.5 77.2514 12.5 75.5938V31.8438C12.5 30.1861 13.1585 28.5964 14.3306 27.4243C15.5027 26.2522 17.0924 25.5937 18.75 25.5938H31.25L37.5 16.2188H62.5L68.75 25.5938H81.25C82.9076 25.5938 84.4973 26.2522 85.6694 27.4243C86.8415 28.5964 87.5 30.1861 87.5 31.8438V75.5938C87.5 77.2514 86.8415 78.8411 85.6694 80.0132C84.4973 81.1853 82.9076 81.8438 81.25 81.8438Z" stroke="white" stroke-width="3" stroke-linecap="round" stroke-linejoin="round"/>
<path d="M50 66.2188C57.7665 66.2188 64.0625 59.9228 64.0625 52.1562C64.0625 44.3897 57.7665 38.0938 50 38.0938C42.2335 38.0938 35.9375 44.3897 35.9375 52.1562C35.9375 59.9228 42.2335 66.2188 50 66.2188Z" stroke="white" stroke-width="3" stroke-linecap="round" stroke-linejoin="round"/>
</svg>
