<svg width="100" height="101" viewBox="0 0 100 101" fill="none" xmlns="http://www.w3.org/2000/svg">
<path d="M70.3125 78.7188C76.3531 78.7188 81.25 73.8219 81.25 67.7812C81.25 61.7406 76.3531 56.8438 70.3125 56.8438C64.2719 56.8438 59.375 61.7406 59.375 67.7812C59.375 73.8219 64.2719 78.7188 70.3125 78.7188Z" stroke="white" stroke-width="3" stroke-linecap="round" stroke-linejoin="round"/>
<path d="M20.3125 91.2188C26.3531 91.2188 31.25 86.3219 31.25 80.2812C31.25 74.2406 26.3531 69.3438 20.3125 69.3438C14.2719 69.3438 9.375 74.2406 9.375 80.2812C9.375 86.3219 14.2719 91.2188 20.3125 91.2188Z" stroke="white" stroke-width="3" stroke-linecap="round" stroke-linejoin="round"/>
<path d="M81.25 31.8438L31.25 44.3438" stroke="white" stroke-width="3" stroke-linecap="round" stroke-linejoin="round"/>
<path d="M31.25 80.2812V25.5938L81.25 13.0938V67.7812" stroke="white" stroke-width="3" stroke-linecap="round" stroke-linejoin="round"/>
</svg>
