<svg width="100" height="101" viewBox="0 0 100 101" fill="none" xmlns="http://www.w3.org/2000/svg">
<path d="M7.8125 84.9688H35.9375C39.9549 84.9688 43.8821 83.7775 47.2225 81.5455C50.5629 79.3135 53.1664 76.1411 54.7038 72.4295C56.2412 68.7179 56.6435 64.6337 55.8597 60.6935C55.0759 56.7532 53.1414 53.1339 50.3006 50.2932C47.4598 47.4524 43.8405 45.5178 39.9003 44.7341C35.96 43.9503 31.8759 44.3526 28.1642 45.89C24.4526 47.4274 21.2802 50.0309 19.0483 53.3712C16.8163 56.7116 15.625 60.6388 15.625 64.6563C15.625 78.7188 7.8125 84.9688 7.8125 84.9688Z" stroke="white" stroke-width="3" stroke-linecap="round" stroke-linejoin="round"/>
<path d="M43.9053 45.9844C51.4053 35.8672 70.4678 12.7031 87.8896 12.7031C87.8896 30.125 64.7256 49.1875 54.6084 56.6875" stroke="white" stroke-width="3" stroke-linecap="round" stroke-linejoin="round"/>
<path d="M51.9531 35.9844C57.246 38.9715 61.6223 43.3477 64.6094 48.6406" stroke="white" stroke-width="3" stroke-linecap="round" stroke-linejoin="round"/>
</svg>
