<svg width="100" height="101" viewBox="0 0 100 101" fill="none" xmlns="http://www.w3.org/2000/svg">
<path d="M14.3355 68.1721L23.7887 14.6174C23.8547 14.2133 24.0006 13.8263 24.2178 13.479C24.4349 13.1318 24.719 12.8312 25.0535 12.5949C25.388 12.3586 25.7662 12.1912 26.166 12.1025C26.5659 12.0138 26.9794 12.0056 27.3824 12.0784L48.9449 15.8674C49.7596 16.0198 50.482 16.4857 50.9568 17.165C51.4316 17.8443 51.6209 18.6828 51.484 19.5003L41.9918 73.3674C41.3417 76.9946 39.2977 80.2232 36.2972 82.3623C33.2966 84.5014 29.578 85.3809 25.9371 84.8128C18.1637 83.5628 12.9684 75.9456 14.3355 68.1721Z" stroke="white" stroke-width="3" stroke-linecap="round" stroke-linejoin="round"/>
<path d="M46.21 49.3439L74.6865 38.9923C75.0737 38.8493 75.4853 38.7845 75.8977 38.8015C76.31 38.8185 76.7149 38.917 77.089 39.0913C77.4631 39.2656 77.7989 39.5123 78.0771 39.8172C78.3553 40.122 78.5704 40.4789 78.71 40.8673L86.21 61.4142C86.4866 62.1913 86.4447 63.0463 86.0935 63.7927C85.7422 64.5391 85.1101 65.1163 84.335 65.3985L32.9287 84.1095" stroke="white" stroke-width="3" stroke-linecap="round" stroke-linejoin="round"/>
<path d="M85.9375 64.0703V81.8438C85.9375 82.6726 85.6083 83.4674 85.0222 84.0535C84.4362 84.6395 83.6413 84.9688 82.8125 84.9688H28.125" stroke="white" stroke-width="3" stroke-linecap="round" stroke-linejoin="round"/>
<path d="M28.125 75.5938C30.7138 75.5938 32.8125 73.4951 32.8125 70.9062C32.8125 68.3174 30.7138 66.2188 28.125 66.2188C25.5362 66.2188 23.4375 68.3174 23.4375 70.9062C23.4375 73.4951 25.5362 75.5938 28.125 75.5938Z" fill="white"/>
</svg>
