<svg width="100" height="101" viewBox="0 0 100 101" fill="none" xmlns="http://www.w3.org/2000/svg">
<path d="M9.375 24.0312H59.375C62.6902 24.0313 65.8696 25.3482 68.2138 27.6924C70.558 30.0366 71.875 33.216 71.875 36.5312V74.0312C71.875 74.8601 71.5458 75.6549 70.9597 76.241C70.3737 76.827 69.5788 77.1562 68.75 77.1562H18.75C15.4348 77.1562 12.2554 75.8393 9.91117 73.4951C7.56696 71.1509 6.25 67.9715 6.25 64.6562V27.1562C6.25 26.3274 6.57924 25.5326 7.16529 24.9465C7.75134 24.3605 8.5462 24.0312 9.375 24.0312V24.0312Z" stroke="white" stroke-width="3" stroke-linecap="round" stroke-linejoin="round"/>
<path d="M71.875 44.3438L93.75 31.8438V69.3438L71.875 56.8438" stroke="white" stroke-width="3" stroke-linecap="round" stroke-linejoin="round"/>
</svg>
